<?xml version="1.0" encoding="utf-8"?>
<!-- Generator: Adobe Illustrator 19.0.0, SVG Export Plug-In . SVG Version: 6.00 Build 0)  -->
<svg version="1.1" id="Layer_1" xmlns="http://www.w3.org/2000/svg" xmlns:xlink="http://www.w3.org/1999/xlink" x="0px" y="0px"
	 viewBox="0 0 500 500" style="enable-background:new 0 0 500 500;" xml:space="preserve">
<style type="text/css">
	.st0{fill:#C4C076;}
	.st1{fill:#B3DEF8;}
	.st2{fill:#F7F7F7;}
	.st3{fill:#FFFFFF;}
</style>
<g id="XMLID_102_">
	<path id="XMLID_114_" d="M131.9,431.9c-4.5-1.6-7.2-4.2-8.8-8.4c-0.8-2-0.8-11.7-0.8-119.3c0-115.7,0-117.1,1-119.4
		c0.8-1.8,12.7-14,56.4-57.5c53.8-53.7,55.4-55.3,59-56.9c8.3-3.8,16.9-3.8,24.6,0c2.2,1.1,12.9,11.6,57.5,56.2
		c30.1,30.2,55.3,55.7,55.8,56.7c0.9,1.7,1,4.9,1.1,119.3c0.1,88.3,0,118.1-0.5,119.7c-0.9,3.1-4,6.4-8,8.4l-3.4,1.7l-116,0.1
		C155.9,432.6,133.4,432.5,131.9,431.9z"/>
	<path id="XMLID_120_" class="st0" d="M365,422.6c1-0.6,2.4-2.1,3.1-3.3l1.3-2.3V303.1V189.1l-1.2-2.6c-1-2.1-11.4-12.8-53.8-55.1
		C254.8,71.9,259.4,76,251.1,76c-8.4,0-3.6-4.2-64.4,56.5c-48.3,48.3-53.8,53.9-55,56.6l-1.4,3.1v112.1v112.1l1.1,2
		c0.6,1.1,1.6,2.4,2.3,3c3.4,2.5-2.5,2.4,117.4,2.3C363.1,423.7,363.2,423.7,365,422.6z"/>
	<path id="XMLID_121_" d="M145,412.9c-0.9-0.4-2-1.4-2.4-2.2c-0.8-1.4-0.9-8.8-0.9-109.2l0-107.7l1.2-1.9
		c1.5-2.4,102-104.1,103.9-105.1c2.2-1.1,5.6-0.9,7.4,0.4c0.9,0.6,19,18.3,40.4,39.3c21.3,21,44.1,43.3,50.6,49.7
		c7.9,7.7,12.1,12.2,12.7,13.6c0.9,2,0.9,6.6,0.9,110c0,117.1,0.2,109.8-2.8,112.5l-1.4,1.3l-104,0.1
		C158.7,413.6,146.4,413.6,145,412.9z"/>
	<path id="XMLID_122_" class="st1" d="M352.1,409.1c3.4-2.1,3.2,6.1,3-109.9L355,193.8l-1.4-2.3c-0.8-1.4-18.9-19.6-45.8-46.1
		c-59.2-58.3-54.4-53.8-57-53.8c-1.2,0-2.7,0.3-3.5,0.7c-0.8,0.4-23.4,22.8-50.4,49.8c-40.2,40.3-49.2,49.5-50.2,51.6l-1.2,2.6
		L145.4,301c-0.1,78.1,0,105.1,0.5,106.1c1.3,3.1-6.7,2.9,103.6,2.9C349.8,410.1,350.4,410.1,352.1,409.1z"/>
	<path id="XMLID_123_" d="M203.8,407c-1.4-0.5-2.3-2.7-1.9-4.7c0.3-1.4,0.3-1.4-0.7-0.8c-0.6,0.4-1.3,1.2-1.5,2
		c-0.3,0.9-0.5,1-0.5,0.4c0-0.6-0.5-0.9-1.3-0.9c-1.7,0-2.5-1.8-2.1-4.3c0.5-2.5,1.1-2.7,1.1-0.4c0,1.4,0.2,1.9,0.9,2
		c1.2,0.2,1.2-0.9-0.1-9.4c-1.1-7.4-1.2-10.4-0.5-11.5c0.4-0.6,0.7-0.2,1.6,1.7c0.8,1.9,1,2.6,0.5,2.9c-0.5,0.3-0.4,1.9,0.3,7.5
		c0.5,3.9,1,7.2,1.1,7.3c0.1,0.1,1.3-0.5,2.7-1.4c2.5-1.6,4.5-3.5,4.1-3.8c-0.1-0.1-1.5-1-3.1-2c-3.1-1.9-4.2-3.4-3.7-4.7
		c0.4-1,0.2-1,2.5,0c1,0.4,1.7,1,1.6,1.3s0.6,0.9,1.8,1.5c2.8,1.4,3.4,2.7,2.6,5.2c-0.5,1.5-1.2,2.4-3.1,3.6
		c-2.5,1.7-3.1,2.9-2.2,5.2c0.7,1.8,5.9,0.1,9.9-3.2c2.2-1.8,2-3.3-0.4-2.7c-2.1,0.6-2.9,0-2.5-2.1c0.3-1.8,1.6-4,2.3-4
		c0.2,0,1.1,0.7,2,1.7c1.2,1.3,1.8,1.5,2.4,1.2c1.3-0.8,1-1.5-0.6-1.8c-1.1-0.2-1.5-0.5-1.3-1.3c0.3-1.6,0.9-2,4.2-2.2
		c4.6-0.3,6.7,0.2,6.7,1.6c0,0.8-0.5,1.4-1.3,1.8c-0.7,0.3-1.3,0.8-1.3,1.1c0,1.1,2.4,0.5,4.1-1c2.1-1.8,2.3-1.9,2.7-0.5
		c0.4,1.4,2.5,1.4,3.7,0c0.9-1,1-1,1.9-0.2c0.9,0.8,1,0.8,1.5-0.8c0.3-0.9,0.8-1.6,1-1.6c0.8,0,0.5,2.8-0.4,4
		c-0.7,0.9-1.2,1.1-2.4,0.9c-1-0.2-2,0-2.6,0.5c-1.4,1-2.6,0.9-3.5-0.3c-0.7-1-0.7-0.9-2.8,0.4c-2.3,1.5-3,3.2-2.2,5.3
		c0.7,2,2.3,2.6,5.7,2.3c3.3-0.3,6.9-1.9,7.7-3.5c0.3-0.6,0.7-0.9,1-0.8c0.2,0.1,1-0.4,1.8-1.2c1.4-1.4,1.4-1.5,0.6-3.4
		c-0.5-1.1-0.7-2.5-0.5-3.2l0.3-1.2l1.2,1.1c1.4,1.3,2.7,1.4,4.3,0.3c1-0.7,1.1-0.7,1.1-0.1c0,1.2-2,3.3-3.2,3.5
		c-0.8,0.1-1.2,0.6-1.5,1.9c-0.2,0.9-1.2,2.6-2.3,3.7c-2.2,2.3-2.1,3.6,0.3,3.6c2.8,0,9.7-4.3,9.7-6.1c0-0.5-0.7-3-1.5-5.5
		c-1.4-4.2-1.6-6.4-0.5-6.4c0.5,0,1.8,3.4,3.8,9.8c0.8,2.5,1.7,4.7,2,5c0.4,0.4,1,0,2-1.3l1.4-1.8h-2.1c-2.2,0-2.5-0.4-1.6-2.7
		c0.3-0.7,1.6-1.8,3.3-2.7c2.6-1.4,2.9-1.7,2.9-3.2c0-3.8,2.3-4.8,5.2-2.2c1.5,1.4,1.6,1.5,0.9,2.9c-0.5,1-1.5,1.7-3.2,2.4
		c-1.4,0.5-2.9,1.3-3.3,1.8c-0.7,0.8-0.4,0.8,4.2,0.5c2.7-0.2,5-0.2,5,0c0,1.2-1.3,2.2-3.4,2.8c-4.4,1.2-8.9,3.1-8.9,3.9
		c0,0.4,0.7,1.1,1.5,1.6c1.6,0.9,1.9,1.8,1.1,3.1c-1.2,1.8-6.1-1.7-7.4-5.2l-0.5-1.5l-1.1,1.7c-1.7,2.6-6.7,5.6-9.4,5.6
		c-1.9,0-2.4-0.2-3.1-1.5l-0.9-1.5l-1.9,1c-8.1,4.2-14.8,0.3-12-6.8c0.3-0.7,0.1-0.9-0.6-0.9c-0.5,0-1.2-0.2-1.5-0.5
		c-0.3-0.3-1.3-0.2-2.9,0.3c-2.2,0.8-2.4,1-2.4,2.5c0,2.2-1.6,4.1-5.2,6.3C207.3,406.9,205.3,407.5,203.8,407z"/>
	<path id="XMLID_124_" class="st2" d="M213.8,395.1c-0.2-0.7-1.1-0.6-1.3,0.1c-0.1,0.3,0.2,0.5,0.7,0.5
		C213.6,395.8,213.9,395.5,213.8,395.1z"/>
	<path id="XMLID_125_" class="st2" d="M222.3,391.1c-0.4-0.6-2.3-0.6-2.3,0c0,0.3,0.3,0.6,0.6,0.7
		C221.6,392.1,222.7,391.6,222.3,391.1z"/>
	<path id="XMLID_126_" class="st2" d="M264.4,388.6c0.2-0.3,0.2-0.5,0.1-0.5s-0.6-0.1-1.1-0.3c-0.5-0.2-0.8,0-0.8,0.5
		C262.6,389.2,263.9,389.4,264.4,388.6z"/>
	<path id="XMLID_127_" d="M269.5,407.1c-0.2-0.3-0.1-1.2,0-2.1l0.3-1.6l0.7,1.3C271.5,406.5,270.5,408.7,269.5,407.1z"/>
	<path id="XMLID_128_" d="M263.7,405.7c-1.2-0.8-1.5-3.3-0.8-5.2c0.3-0.7,0.4-0.5,0.6,0.9c0.4,2.7,2.1,2.7,4.7-0.1l2.1-2.2l-0.3-7.7
		c-0.2-4.2-0.6-7.8-0.8-7.9c-0.8-0.3-0.5-1.4,0.5-2.3c0.9-0.8,1-0.8,1.3,2.1c0.2,1.6,0.5,5.5,0.6,8.7l0.3,5.7l2.2-1.3
		c2.1-1.2,2.2-1.4,2.2-3.3c0-2.5,1-3,3.5-1.7c1.5,0.8,1.8,1.3,1.8,2.7c0,1.7-0.1,1.8-4,3.1c-2.2,0.8-4.4,1.8-4.9,2.3
		c-0.8,0.8-0.7,0.9,0.6,2.1c0.8,0.7,2,1.2,2.6,1.2c1.5,0,4.1-2.1,5.2-4.2c1-1.9,2-1.9,3,0c1.5,3,0.6,4.8-2.4,4.7
		c-0.9,0-2.7,0.4-4.1,1c-3,1.3-4.8,0.9-6-1.4c-0.4-0.8-0.9-1.6-0.9-1.8c-0.1-0.1-1.3,1-2.6,2.4c-1.4,1.5-2.7,2.7-2.9,2.7
		S264.3,406.1,263.7,405.7z"/>
	<path id="XMLID_129_" class="st2" d="M283.6,401.1c0-0.1-0.3-0.4-0.8-0.8c-0.6-0.5-0.8-0.5-0.8,0.4c0,0.7,0.2,1,0.8,0.8
		C283.2,401.4,283.6,401.2,283.6,401.1z"/>
	<path id="XMLID_131_" class="st2" d="M279.4,393.7c0.1-0.4-0.1-0.6-0.4-0.4c-0.4,0.1-0.8,0.5-0.9,0.9c-0.1,0.4,0.1,0.6,0.4,0.4
		C278.9,394.5,279.3,394.1,279.4,393.7z"/>
	<path id="XMLID_132_" d="M294.9,405.5c-0.3-0.5-0.5-2.1-0.5-3.5c0-2.3,0.1-2.4,0.5-0.9c1,3.6,2.5,3.4,4.8-0.6c1.8-3,3-3.3,5.1-1.3
		c1.8,1.7,3.4,2,4.4,0.8c0.6-0.7,0.5-0.9-0.1-1.3c-0.4-0.3-1.1-0.4-1.6-0.3c-1.2,0.3-1.2-1.3,0-2.4c2-1.8,9.3-2.3,9.3-0.6
		c0,0.4-0.7,1.5-1.6,2.5l-1.6,1.8l1.3,0.3c2.3,0.6,3,0.1,3.8-2.6c0.4-1.4,1-2.9,1.4-3.3c0.6-0.6,0.8-0.5,1.5,0.5
		c1.3,2,0.6,4.7-1.8,6.8c-1.1,0.9-2,2-2,2.4c0,0.5-0.2,0.5-0.5-0.2c-0.3-0.5-1-0.9-1.6-0.9c-0.6,0-1.9-0.5-2.8-1
		c-1-0.6-1.8-0.8-2-0.5c-0.2,0.3-1.2,1-2.3,1.5c-2.3,1.2-3.5,0.8-4.9-1.3c-0.5-0.7-1.1-1.3-1.5-1.3c-0.8,0-2.6,2.2-3.9,4.5
		C297.3,406.7,295.7,407,294.9,405.5z"/>
	<path id="XMLID_133_" class="st2" d="M320.9,397.7c0-0.5-0.2-1-0.5-1c-0.6,0-1.5,2.1-1.2,2.7C319.6,400.1,320.9,398.8,320.9,397.7z
		"/>
	<path id="XMLID_137_" class="st2" d="M312.6,397c-0.5-0.5-1.5,0.3-1.1,0.9c0.2,0.3,0.5,0.3,0.9,0
		C312.7,397.6,312.8,397.2,312.6,397L312.6,397z"/>
	<path id="XMLID_138_" d="M338.3,406.2c-0.7-0.2-0.8-0.5-0.3-1.7c0.5-1.3,0.6-1.4,1.8-0.9c0.8,0.3,1.2,0.9,1,1.3
		c-0.2,0.4-0.3,0.9-0.3,1.2C340.4,406.5,339.8,406.6,338.3,406.2L338.3,406.2z"/>
	<path id="XMLID_139_" d="M285.2,403.5c2.1-1.4,4-2.8,4.2-3.3c0.6-1.6-2-5.3-7.2-10.3c-2.9-2.8-5.6-5.8-6-6.5
		c-0.8-1.5-1-3.5-0.3-3.5c0.8,0,4,3,3.2,3.1c-0.4,0,1.7,2.5,4.6,5.5c4.3,4.4,5.5,6,6.2,8.1c0.8,2.5,0.8,2.5,1.4,1.3
		c0.5-1.1,0.4-2.6-0.7-8.2c-1.5-7.8-1.5-8.1-0.8-10.1l0.5-1.4l0.9,2c0.5,1.1,0.7,2.2,0.5,2.3c-0.2,0.2-0.1,2.2,0.3,4.6
		c1.4,7.8,0.9,11.2-2.1,14.8c-1.5,1.7-5.8,4.1-7.6,4.1C281.7,406,282.8,405,285.2,403.5L285.2,403.5z"/>
	<path id="XMLID_140_" d="M290,404.8c-0.2-0.7,0-1.4,0.5-1.9c0.7-0.7,0.8-0.7,0.5,0.2c-0.3,0.8-0.1,0.9,0.8,0.6
		c1.1-0.4,1.1-0.4-0.1,1c-0.7,0.7-1.3,1.3-1.3,1.3S290.2,405.5,290,404.8z"/>
	<path id="XMLID_145_" d="M329.7,405.5c0-0.4-0.7-1.2-1.6-1.7c-2.1-1.2-2.9-3.4-3.6-10.2c-0.3-3.2-0.8-7.1-1.1-8.6
		c-0.4-2-0.4-3.1,0.1-4.2c0.7-1.8,1.5-2,1.5-0.3c0,2.9,1.6,17.2,2,18.3c0.3,0.7,0.5,0.9,0.5,0.4c0-0.4,0.3-1.6,0.6-2.7
		c0.8-2.9,2.2-3.2,7.6-1.7c2.4,0.7,5.2,1.4,6.1,1.6c1.3,0.3,1.7,0.6,1.5,1.3c-0.2,1-1,1.4-9.5,4.9c-1.8,0.7-3.4,1.8-3.7,2.4
		C329.9,405.9,329.7,406,329.7,405.5z"/>
	<path id="XMLID_146_" class="st2" d="M335.3,399.8l2.3-1.1l-1.8-0.8c-1-0.4-2.8-0.9-4-1c-2.4-0.3-3.1,0.4-2.5,2.7
		c0.3,1,0.6,1.3,2,1.3C332.2,400.9,334,400.4,335.3,399.8z"/>
	<path id="XMLID_147_" d="M164.4,404.5c2-1.1,6-4.8,6-5.5c0-0.2-1.1-0.3-2.5-0.2c-2.2,0.2-2.7,0-4.4-1.5c-2.2-1.9-2.7-1.7-4.4,2
		c-1.4,3.2-2,3.6-3.5,1.9c-1.3-1.5-1.6-4.5-0.7-5.9c0.4-0.6,0.5-0.3,0.5,1c0,4.1,2.2,4.1,4.2-0.1c1.8-3.8,2.3-4.1,4.2-1.9
		c0.9,1,2,1.9,2.5,2.1c1.1,0.4,4-0.1,4-0.7c0-0.8-3.3-4.2-8.3-8.5c-4.5-3.9-5-4.5-5-6.1c0-1,0.2-1.8,0.3-1.8c0.8,0,3.8,2.7,3.6,3.2
		c-0.1,0.3,1.4,1.9,3.3,3.5c3.4,2.9,6.7,6.6,7.3,8.1c0.6,1.6,0.3-2.9-0.5-7.5c-0.8-4.7-0.6-8.4,0.3-6.8c0.5,0.8,1.3,5.7,1.8,10.9
		c0.3,3.4,0.4,3.5,1.3,2.6c0.9-0.8,1-0.8,1,0.3c0,3,2,3.3,3.2,0.4c0.8-2,2.3-3.3,2.9-2.7c1.1,1.1,1.9,4.1,1.5,5.3
		c-0.4,1.1-0.7,1.2-2.4,0.9c-1.4-0.2-2.2-0.1-2.6,0.4c-1.1,1.3-2.5,0.9-3.3-0.9c-0.6-1.4-0.8-1.5-1.1-0.8c-0.4,1.1,0.1,3.8,0.9,4.8
		c0.9,1.1,2.6,0.8,4.1-0.7l1.4-1.4l0.5,1.4c0.3,0.8,0.9,1.4,1.5,1.4c1.1,0,2.6-1.3,2.6-2.2c0-0.3,0.4-0.2,0.8,0.4
		c0.8,1.1,0.8,1.1,1.7-1c0.6-1.4,0.7-1.4,1-0.5c0.5,1.4,0.1,3.2-1.1,4.2c-0.8,0.7-1.2,0.8-1.9,0.3c-0.8-0.5-1.1-0.4-1.8,0.4
		c-1.2,1.3-2.5,1.3-3.5-0.1c-0.7-1-0.8-1-1.6-0.3c-1.3,1.3-2.8,1.9-3.8,1.6c-0.9-0.3-1.3-1.1-2.3-4.1c-0.3-0.9-0.4-0.8-1.3,0.6
		c-1.2,2-4,3.7-6.5,4.1l-1.9,0.3L164.4,404.5z"/>
	<path id="XMLID_148_" class="st2" d="M181.7,395c0-0.4-0.2-0.8-0.5-0.8c-0.6,0-1.1,0.8-0.7,1.2C181.1,396,181.7,395.8,181.7,395z"
		/>
	<path id="XMLID_149_" d="M187.6,403.8c3.8-3,5.4-4.9,5.4-6.7c0-0.9-0.4-5.3-0.9-9.7c-0.7-6.1-0.7-8.2-0.3-8.7
		c0.5-0.5,0.9,0.1,1.8,2.2c0.8,1.7,1,2.9,0.7,3.1c-0.3,0.2-0.3,2.2,0,5.7c0.6,5.9,0.2,8.7-1.5,11.5c-1.3,2.1-2.9,3.2-5.4,3.7
		l-1.9,0.4L187.6,403.8z"/>
	<path id="XMLID_150_" d="M192.7,404.4c-0.2-0.7,0-1.4,0.5-1.9c0.8-0.8,0.9-0.8,0.5,0.3c-0.4,1.3,0.2,1.5,1.2,0.5
		c0.4-0.4,0.6-0.4,0.6-0.1c0,0.6-1.6,2.2-2.2,2.2C193.1,405.5,192.9,405,192.7,404.4z"/>
	<path id="XMLID_151_" d="M217.7,403.1c0.1-1.3,0.3-2.6,0.3-2.8c0.1-0.7,1.1-0.4,1.1,0.4c0,0.5,0.3,0.6,0.9,0.4
		c0.9-0.3,0.9-0.3,0,0.7c-1.2,1.4-1.2,2.4,0.1,2.1c1.3-0.3,1.3,0.5,0,1.2C218,406.1,217.4,405.7,217.7,403.1z"/>
	<path id="XMLID_152_" d="M249.8,404.2c0-0.7,0.2-1.4,0.5-1.6c0.3-0.2,0.4,0,0.2,0.4c-0.2,0.4,0,0.9,0.3,1.1
		c0.6,0.4,0.2,1.3-0.5,1.3C250,405.5,249.8,404.9,249.8,404.2z"/>
	<path id="XMLID_153_" d="M160.8,403.4c-0.4-0.4-0.4-0.9,0-1.8c0.5-1,0.7-1.1,1.6-0.6c0.8,0.4,1.1,0.4,1.5-0.3
		c0.6-1.1,2.5-0.2,2.5,1.3c0,0.9-0.2,1-1.5,0.8c-1-0.2-1.6-0.1-1.8,0.4C162.7,404.1,161.6,404.2,160.8,403.4z"/>
	<path id="XMLID_154_" d="M208.1,400.9c-0.2-0.3-0.1-1,0.2-1.7c0.3-0.8,0.5-0.9,0.5-0.3c0,0.5,0.2,1.2,0.3,1.7
		C209.5,401.4,208.6,401.7,208.1,400.9z"/>
	<path id="XMLID_155_" d="M297.3,399.3c-0.2-0.9-0.7-5.3-1.2-9.7c-0.9-7.7-0.9-8,0-9.4l0.9-1.4l0.7,2.2c0.4,1.5,0.5,2.3,0.1,2.5
		c-0.4,0.2-0.3,2.7,0.1,8c0.4,5.2,0.5,7.9,0.1,8.6C297.6,400.9,297.5,400.7,297.3,399.3z"/>
	<path id="XMLID_156_" d="M227.1,400c-0.2-0.2-0.3-1.1-0.3-1.9c0-1.1,0.1-1.3,0.3-0.6c0.1,0.6,0.5,1.2,0.8,1.4
		c0.4,0.3,0.4,0.5,0,0.9C227.7,400.1,227.3,400.2,227.1,400L227.1,400z"/>
	<path id="XMLID_157_" d="M231.1,399.7c-1.1-0.8-0.7-2.9,0.5-2.9c1,0,1.5,1.3,0.9,2.6C232.2,400.3,232,400.3,231.1,399.7z"/>
	<path id="XMLID_158_" d="M245.3,399c-0.9-0.4-0.8-2.2,0.2-2.6c1.1-0.4,1.8,0.4,1.4,1.8C246.6,399.4,246.4,399.5,245.3,399z"/>
	<path id="XMLID_159_" d="M191.5,397.3c-0.4-1.1-3.2-4.4-7.5-8.7c-4.6-4.6-6.9-7.3-6.9-8.1c0-1.7,0.5-1.7,3-0.1
		c1.5,1,1.9,1.5,1.3,1.5c-0.7,0,0.7,1.7,4.4,5.5c4.4,4.5,5.5,5.9,6,7.9C192.7,398.2,192.4,399.8,191.5,397.3z"/>
	<path id="XMLID_160_" d="M156.9,395.9c-0.2-0.2-0.3-1.1-0.3-1.9l0-1.6l0.8,1.5c0.4,0.8,0.8,1.7,0.8,1.9
		C158.1,396.3,157.4,396.4,156.9,395.9z"/>
	<path id="XMLID_161_" d="M185.1,395.6c-0.1-0.4-0.1-1.1,0.2-1.7c0.3-0.9,0.4-0.9,0.4-0.1c0,0.5,0.3,0.9,0.5,0.9s0.5,0.3,0.5,0.8
		C186.8,396.4,185.5,396.5,185.1,395.6z"/>
	<path id="XMLID_162_" d="M202.2,394.5c0-0.7,0.2-1.4,0.5-1.6c0.3-0.2,0.5-0.1,0.5,0.1c0,0.2,0.1,0.9,0.3,1.6
		c0.2,0.8,0.1,1.2-0.5,1.2C202.4,395.8,202.2,395.3,202.2,394.5z"/>
	<path id="XMLID_163_" d="M301.6,393.6c-0.3-0.3-0.6-1.3-0.6-2c0-0.8-0.2-1.5-0.5-1.7c-0.3-0.2-0.3-0.8,0.1-1.5
		c0.5-1,0.7-1.1,1.5-0.6c0.7,0.4,0.8,0.8,0.4,1.5c-0.4,0.7-0.3,1.2,0.3,1.8c0.6,0.7,0.7,1.1,0.1,2
		C302.4,394,302.1,394.1,301.6,393.6z"/>
	<path id="XMLID_164_" d="M338,392.4c-0.2-0.4-0.1-1.5,0.2-2.4l0.5-1.6l0.1,1.4c0,0.8,0.4,1.6,0.8,1.7c0.4,0.2,0.8,0.6,0.8,1
		C340.4,393.5,338.4,393.4,338,392.4z"/>
	<path id="XMLID_165_" d="M156.7,391.1c-0.3-0.3-0.5-1.2-0.3-2c0.2-1,0-1.5-0.5-1.7c-0.9-0.3-1-1.2-0.4-2.3c0.7-1.2,2.5,0.1,2.3,1.6
		c-0.1,0.7,0.1,1.5,0.6,1.8c0.6,0.5,0.7,0.9,0.2,1.9C157.9,391.8,157.6,391.9,156.7,391.1z"/>
	<path id="XMLID_166_" d="M310.9,390.8c-0.2-0.4,0.1-1.5,0.5-2.4l0.8-1.6l-0.3,1.7c-0.2,1.3-0.1,1.7,0.5,1.7c0.5,0,0.7,0.3,0.5,0.8
		C312.6,391.9,311.3,391.9,310.9,390.8z"/>
	<path id="XMLID_167_" d="M329.8,389.9c1.5-3.8,1.5-4.8,0.4-7.1c-1.2-2.5-1.4-3.5-0.6-3.5c1,0,2.1,3.1,2.1,5.9
		c0,1.6,0.1,2.8,0.2,2.8c0.1,0,2.5-1,5.2-2.3c4.8-2.2,5.8-2.5,5.1-1.3c-0.3,0.5-11.7,6.2-12.4,6.2
		C329.6,390.6,329.7,390.3,329.8,389.9L329.8,389.9z"/>
	<path id="XMLID_169_" d="M318.4,388.7c-1-0.9-1.1-1.3-0.6-1.8c0.5-0.5,0.7-0.5,1.2,0c0.5,0.5,0.8,0.4,1.5-0.5
		c0.5-0.7,1.1-1,1.5-0.7c0.5,0.3,0.4,0.7-0.4,1.5c-0.5,0.6-1.2,1.4-1.4,1.9C319.7,389.8,319.5,389.7,318.4,388.7z"/>
	<path id="XMLID_170_" d="M274.7,389.3c-0.5-0.5-0.4-2.9,0.1-3.7c0.3-0.5,0.5-0.1,0.7,1.3C275.9,388.8,275.4,390,274.7,389.3z"/>
	<path id="XMLID_171_" d="M286.4,389.1c-0.2-0.3-0.1-1,0.2-1.7c0.3-0.8,0.5-0.9,0.5-0.3c0,0.5,0.2,1.2,0.3,1.7
		C287.8,389.7,286.9,389.9,286.4,389.1z"/>
	<path id="XMLID_172_" d="M305.9,388.8c-0.6-0.6-0.3-2.1,0.6-2.9c1-0.9,13.4-6.1,13.8-5.7c0.6,0.6-0.8,1.4-6.2,3.6
		c-6.6,2.8-7.4,3.3-6.4,3.9c0.5,0.3,0.5,0.5-0.1,0.9C306.7,389.2,306.4,389.2,305.9,388.8z"/>
	<path id="XMLID_173_" d="M207.3,386.7c0-1.1,0.2-1.5,0.3-0.9c0.1,0.6,0.5,1.3,0.7,1.6c0.2,0.3,0.3,0.7,0.1,0.9
		C207.7,389,207.3,388.5,207.3,386.7L207.3,386.7z"/>
	<path id="XMLID_174_" d="M174.8,387c-0.8-0.8-0.9-1.1-0.4-1.6c0.5-0.5,0.8-0.5,1.2,0c0.5,0.5,0.7,0.4,1.2-0.3
		c0.4-0.5,0.8-0.7,1-0.5c0.2,0.2,0,0.8-0.5,1.3c-0.5,0.5-0.9,1.2-0.9,1.5C176.6,388.3,175.9,388.2,174.8,387z"/>
	<path id="XMLID_175_" d="M231.2,386c2.8-1.9,3.1-2.2,2.9-3.5c-0.3-1.5,0.9-3,1.8-2.4c1.7,1-1.2,5.2-4.8,6.9
		C227.6,388.6,227.7,388.3,231.2,386z"/>
	<path id="XMLID_176_" d="M254.9,386.7c-0.4-1-0.4-1.6,0-1.9s0.5-0.3,0.5,0.3c0,1.2,1,1.1,1.1,0c0-0.5,0.1-0.6,0.3-0.3
		c0.1,0.4,0.5,0.6,0.7,0.6s0.3-0.3,0.2-0.8c-0.2-0.4,0-0.8,0.3-0.8c0.4,0,0.5,0.7,0.4,1.9c-0.1,1.7-0.3,1.9-1.6,2.1
		C255.7,388.1,255.3,387.9,254.9,386.7L254.9,386.7z"/>
	<path id="XMLID_177_" d="M212.4,387.4c0-0.1,1.3-1.1,2.8-2.2c2-1.5,2.7-2.3,2.5-2.9c-0.4-1.1,0.6-3,1.6-3c0.5,0,0.8,0.5,0.8,1.7
		c0,1.5-0.3,1.9-2.7,3.5C214.7,386.4,212.4,387.7,212.4,387.4L212.4,387.4z"/>
	<path id="XMLID_178_" d="M186.6,385.7c-0.4-1,0.5-4.7,1.3-5.1c0.3-0.2,0.5,0,0.3,0.6c-0.1,0.5-0.4,1.5-0.6,2.1
		c-0.2,0.9-0.1,1.2,0.5,1.2c1.1,0,0.8,1.7-0.3,1.9C187.3,386.5,186.8,386.2,186.6,385.7z"/>
	<path id="XMLID_179_" d="M242.7,385.6c-0.9-0.7-1-1.1-0.6-1.6c0.4-0.6,0.6-0.6,0.8-0.1c0.4,1,1.1,0.8,1.5-0.4
		c0.4-1.2,1.3-1.4,1.3-0.3c0,0.4-0.2,0.8-0.5,0.8c-0.3,0-0.7,0.6-0.9,1.3C243.9,386.4,243.8,386.5,242.7,385.6z"/>
	<path id="XMLID_180_" d="M166.3,385c0-0.7-0.6-2.1-1.3-3.2c-0.7-1-1.3-2.3-1.3-2.8c0-0.8,0.1-0.8,1,0c1.7,1.5,2.9,4.8,2.2,6.1
		l-0.6,1.2L166.3,385z"/>
	<path id="XMLID_181_" d="M251,385.2c-0.5-1.3,1.6-3,5.9-4.8c2.1-0.9,4-1.6,4.2-1.6c1,0,0.4,1.1-0.9,1.6c-5.2,2.1-7.8,3.5-7.8,4.2
		C252.3,385.8,251.4,386.2,251,385.2z"/>
	<path id="XMLID_182_" d="M225.3,383.8c-0.6-1.1-1.4-1.8-1.6-1.6c-0.3,0.2-0.5-0.2-0.5-0.7c0-1.2,1.1-1.4,2.1-0.2
		c0.6,0.7,0.7,0.7,1.4-0.5c0.8-1.5,2.2-1.8,2.2-0.5c0,0.5-0.4,1.1-0.8,1.4c-0.4,0.3-1,1.4-1.2,2.3l-0.4,1.7L225.3,383.8z"/>
	<path id="XMLID_183_" d="M283.9,385.2c-0.5-0.5-0.4-3.7,0.2-4c0.3-0.2,0.5,0.3,0.5,1c0,0.8,0.3,1.3,0.8,1.3c0.9,0,1,0.6,0.2,1.4
		C284.8,385.6,284.4,385.7,283.9,385.2z"/>
	<path id="XMLID_184_" d="M213.3,383.3c-0.1-0.4-0.1-1.1,0.2-1.7c0.3-0.8,0.4-0.8,0.4-0.2c0,0.5,0.3,0.9,0.6,1.1s0.4,0.5,0.2,0.8
		C214.3,384.2,213.6,384.1,213.3,383.3z"/>
	<path id="XMLID_185_" d="M337.4,383.1c-0.3-0.6-1-1.2-1.4-1.2c-0.9,0-1-1.3-0.2-1.8c0.3-0.2,1,0,1.5,0.5c0.9,0.8,1,0.8,1.3-0.5
		c0.2-0.7,0.7-1.3,1.1-1.3c1,0,1,0.7,0,1.5c-0.4,0.4-1,1.4-1.2,2.2C338,384.2,338,384.2,337.4,383.1L337.4,383.1z"/>
	<path id="XMLID_186_" d="M264.7,382.6c-0.4-0.7-0.9-1-1.4-0.8c-0.5,0.2-0.8,0-0.8-0.4c0-1.1,0.5-1.4,1.5-0.9
		c0.7,0.4,1.1,0.2,1.8-0.5c0.5-0.5,1.1-0.9,1.4-0.7c0.3,0.2,0,0.8-0.5,1.4c-0.6,0.6-1.1,1.6-1.2,2.1
		C265.4,383.7,265.3,383.7,264.7,382.6L264.7,382.6z"/>
	<path id="XMLID_187_" d="M240.9,382.1c0.3-0.7,0.1-0.8-0.5-0.5c-1.2,0.5-1.6-0.4-0.6-1.4c0.9-0.9,3.3-1.1,3.3-0.3
		c0,1-0.7,2.1-1.6,2.6C240.7,382.9,240.6,382.8,240.9,382.1z"/>
	<path id="XMLID_188_" d="M310.3,381.9c-0.3-0.5-0.8-0.9-1-0.9c-0.4,0.1-0.6-0.3-0.6-1.2c0-0.7,1.9-0.6,2.2,0.1
		c0.2,0.5,0.4,0.4,0.8-0.3c0.6-0.9,2.1-1.2,2.1-0.4c0,0.3-0.3,0.7-0.7,0.9c-0.4,0.2-1,0.9-1.4,1.5
		C310.9,382.9,310.9,382.9,310.3,381.9z"/>
	<path id="XMLID_189_" d="M204.1,381.6c0.2-0.6,0.1-0.8-0.5-0.5c-0.6,0.2-0.9,0.1-0.9-0.4c0-0.9,2.2-1.9,3.3-1.4c1,0.4,1,0.7,0,2.1
		C205,382.7,203.6,382.9,204.1,381.6z"/>
	<path id="XMLID_190_" d="M302.8,381.9c0.2-0.3,0-0.5-0.5-0.5c-1,0-1-0.6-0.2-1.4c0.8-0.8,3-0.8,3-0.1c0,1.1-1.1,2.5-1.8,2.5
		C302.8,382.4,302.6,382.2,302.8,381.9z"/>
	<path id="XMLID_191_" d="M157.6,374.9l-1.3-1l-0.1-29c-0.1-28.5-0.1-29,0.9-30c1-1,1.7-1,16.4-1c14.7,0,15.4,0,16.4,1
		c1,1,1,1.7,1,22.9c0,19-0.1,22.1-0.8,23c-0.8,1.1-1.1,1.1-8.7,1.1h-7.9l0.1-6.8c0.1-6.6,0.2-6.8,1.3-6.9c1.2-0.2,1.2-0.2,1.2-10.4
		v-10.2h-2.6h-2.6v23.2c0,21-0.1,23.3-0.8,23.9c-0.6,0.5-2.6,0.8-6,0.9C159.5,375.9,158.7,375.8,157.6,374.9L157.6,374.9z"/>
	<path id="XMLID_192_" class="st2" d="M168.8,349.5l0.1-23.9h4.6h4.6v12.3v12.3l-1.2,0.2c-1.1,0.2-1.2,0.4-1.3,4.9l-0.1,4.8l6.5-0.1
		l6.5-0.1v-21.8v-21.8h-15.1h-15.1l-0.1,27.6c-0.1,15.2,0,28.2,0.1,28.8c0.3,1.1,0.4,1.2,5.3,1l5-0.1L168.8,349.5z"/>
	<path id="XMLID_193_" d="M328.6,373.4c-0.6-0.7-0.8-5.5-0.9-29.8c-0.1-25.5,0-29.1,0.7-30.1c0.8-1.2,1.1-1.2,6.6-1.2
		c5.5,0,5.9,0.1,6.6,1.1c0.7,1,0.8,4.7,0.8,29.9c0,24-0.1,28.9-0.7,29.7c-0.6,0.9-1.5,1-6.6,1.2
		C330.1,374.3,329.2,374.2,328.6,373.4z"/>
	<path id="XMLID_194_" class="st2" d="M340.1,343.3v-28.7H335h-5.1l-0.1,27.6c-0.1,15.2,0,28.2,0.1,28.8c0.3,1.1,0.4,1.2,5.3,1
		l5-0.1V343.3z"/>
	<path id="XMLID_195_" d="M197,361.1c-0.6-0.7-0.7-10.2-0.8-56.6l-0.1-55.7h7.7h7.7v49.4v49.4h6.4h6.4v-16.1c0-15.1,0.1-16.1,1-17.3
		l1-1.2h23.1h23.1l1,1.2c0.9,1.1,1,2.3,1,23.3c0,19.2-0.1,22.3-0.8,23.2l-0.8,1.1h-37.5C200.9,362,197.6,361.9,197,361.1z"/>
	<path id="XMLID_196_" class="st2" d="M272.2,338c0.1-15.6,0-21.9-0.4-22.4c-0.5-0.6-4.6-0.7-22.2-0.7c-11.9,0-22,0.1-22.5,0.3
		c-0.7,0.3-0.8,2.3-0.8,17.4v17.1h-8.4h-8.4v-49.4v-49.4h-5.6h-5.6V305c0,29.8,0.2,54.3,0.3,54.5c0.2,0.2,16.8,0.3,37,0.2l36.6-0.1
		L272.2,338z"/>
	<path id="XMLID_197_" d="M239.5,343.4c0-7.1,0.7-10.7,2.8-13.7c1.5-2.2,5.6-5.1,7.1-5.1c2.5,0,7.5,4.1,9.3,7.8
		c1.1,2.3,1.2,3,1.2,9.9v7.4h-10.2h-10.2V343.4z"/>
	<path id="XMLID_198_" class="st1" d="M258,341.5c0-7.1-0.6-8.8-4.1-11.9c-3.1-2.8-4.3-3.2-6-2.1c-4.9,3.1-5.9,5.4-6.2,13.7
		l-0.2,6.5h8.3h8.3V341.5z"/>
	<path id="XMLID_199_" d="M280.3,360.8c-0.6-0.9-0.8-2.5-0.8-6.7c0-5.5,0-5.5,1.3-6c0.7-0.3,2.6-0.5,4.1-0.5h2.8V298v-49.7h7.4h7.4
		V298v49.7h2.6h2.6v-16.5c0-13.5,0.1-16.7,0.7-17.5c0.6-0.9,1.5-1,6.1-1.2c8.3-0.3,7.5-2.7,7.5,25.2c0,17.4-0.2,23.3-0.6,23.8
		c-0.5,0.5-5.7,0.6-20.5,0.6h-19.8L280.3,360.8z"/>
	<path id="XMLID_200_" class="st2" d="M319.8,337.3l-0.1-22.7h-4.9h-4.9l-0.1,17.5l-0.1,17.5h-4.1h-4.1v4.9v4.9h-6.4h-6.4v-3.1
		c0-3.1,0-3.1,1.5-3.1c1.5,0,1.5-0.1,1.5-2v-2h4.4h4.4l-0.1-49.5l-0.1-49.5h-5.1H290l-0.1,49.8l-0.1,49.8l-4,0.1l-4,0.1l-0.2,4.3
		c-0.1,2.4,0,4.6,0.1,5c0.2,0.6,3.9,0.7,19.2,0.7h19L319.8,337.3z"/>
	<path id="XMLID_201_" class="st2" d="M299.4,356.3c0-0.8-0.3-1-1.5-1c-1.2,0-1.5-0.2-1.5-1c0-0.8,0.3-1,1.5-1c1.2,0,1.5-0.2,1.5-1
		c0-0.9-0.3-1-3.1-1h-3.1v2c0,1.8-0.1,2-1.3,2c-0.9,0-1.3,0.3-1.3,1c0,0.9,0.3,1,4.4,1C299.1,357.4,299.4,357.3,299.4,356.3z"/>
	<path id="XMLID_202_" d="M225.2,310c0-1.2,2.5-7.7,3.9-10.3c0.8-1.4,3-4.1,5-6.1c3.8-3.8,7.4-6,12.6-7.6c2.8-0.9,3-0.9,5.3,0
		c9.7,3.7,18.2,13.5,19.9,22.9l0.3,1.9h-23.6C228.6,310.8,225.2,310.7,225.2,310z"/>
	<path id="XMLID_203_" class="st2" d="M269.5,307.3c-1.8-7.4-8.4-14.8-16.6-18.7l-3.3-1.6l-3.3,1.2c-6.1,2.1-11.2,6.1-14.7,11.6
		c-1.7,2.6-3.8,7.4-3.8,8.5c0,0.3,7.9,0.5,21,0.5h21L269.5,307.3z"/>
	<path id="XMLID_204_" d="M184.8,200.4c-0.5-0.6,2-3.5,15.9-17.7c16.1-16.5,16.6-16.9,18.9-17.2c5.1-0.7,11.7-1.9,14.4-2.6
		c6.1-1.6,10.9-0.7,13.8,2.4l1.5,1.7l1-1.4c1.1-1.6,3.9-3.1,6.4-3.6c1.8-0.4,7.9,0.6,14.2,2.2c2.3,0.6,5.7,1.2,7.8,1.4l3.7,0.3
		l16.3,16c13,12.8,16.2,16.1,15.7,16.7c-0.5,0.5-4.6-0.4-21-4.7c-18.9-4.9-20.7-5.3-25.2-5.3c-4.3,0-5.2,0.2-7.7,1.4
		c-3,1.5-6.7,5.1-8.2,8c-0.7,1.4-1.2,1.6-2.8,1.6c-1.8,0-2-0.2-3.2-2.3c-1.5-2.9-4.6-5.7-7.7-7c-2.9-1.3-8.8-1.7-12.8-0.9
		c-2.3,0.4-31.5,9-39.3,11.5C185.8,201.1,185.2,200.9,184.8,200.4z"/>
	<path id="XMLID_205_" class="st2" d="M212.9,189.4c17-4.7,18.9-5.1,21.6-4.8c3.8,0.4,8.2,2.6,11.6,5.6l2.7,2.4v-11.4
		c0-12.9-0.1-13.3-4.3-15.3c-2.8-1.4-6.2-1.4-11.7,0c-2.3,0.6-6.6,1.3-9.5,1.7l-5.3,0.6l-11.9,12.3c-6.5,6.8-12.3,12.9-12.9,13.5
		c-1,1.2-1,1.2,0,0.9C193.8,194.7,202.6,192.2,212.9,189.4z"/>
	<path id="XMLID_206_" class="st2" d="M294.1,180.8L281.4,168l-2.6-0.3c-1.4-0.2-5.4-0.9-8.8-1.7c-7.6-1.8-11.9-1.8-15.2-0.2
		c-4,1.9-4,1.7-4,15v11.7l2.6-2.4c3.4-3.2,8.1-5.4,12.3-5.7c2.9-0.2,5.3,0.2,21.7,4.3c10.1,2.5,18.7,4.6,18.9,4.6
		C306.6,193.5,301.1,187.8,294.1,180.8z"/>
	<path id="XMLID_207_" d="M234,157c-1.7-0.9-2.3-2.1-1.9-3.7c0.4-1.7,1.6-2.2,3.1-1.3c0.6,0.4,1.5,0.9,2,1.2
		c0.7,0.4,1.1,0.4,1.7-0.3c0.8-0.8,0.8-0.9-0.2-1.4c-1.4-0.8-1.4-2.4,0-3.2c1-0.5,1.3-0.4,2.3,0.7l1.2,1.3l2.8-2.9
		c2.1-2.2,2.7-3.1,2.3-3.6c-1.1-1.3-9.7-5.2-12.2-5.6c-3.5-0.5-2.5-1.4,1.4-1.4c3.7,0,7.3,1.2,10.8,3.5c1.5,1,2.8,1.8,3,1.8
		c0.1,0,1-0.5,1.9-1.2c3.8-2.8,9.3-4.6,12.9-4.1c1.2,0.2,2.3,0.5,2.3,0.6s-1.3,0.6-2.8,0.9c-3.2,0.7-8.5,3.1-10.6,4.9l-1.4,1.2
		l2.8,3l2.8,3l1.2-1.4c1-1.2,1.3-1.3,2.3-0.8c1.4,0.7,1.4,2.4,0.1,3.1c-1.3,0.7-1.3,1.4,0,1.8c0.7,0.2,1.5-0.1,2.4-0.7
		c1.6-1.3,2.7-1.3,3.6-0.2c2.9,3.8-3.1,6.7-8.1,4.1c-2.1-1.1-2.4-1.2-3.2-0.5c-1.2,1.2-3.4,0.5-3.4-1.2c0-1,0.3-1.3,1.5-1.6
		c0.8-0.2,1.5-0.5,1.5-0.7c0-0.6-5.5-6.2-6.1-6.2c-0.6,0-5.7,5.5-5.7,6.2c0,0.3,0.4,0.5,1,0.5c1.4,0,2.4,1.4,1.8,2.5
		c-0.8,1.2-2.1,1.3-3.2,0.3c-0.9-0.8-1-0.8-2.5,0.3C239.3,157.5,235.7,158,234,157z"/>
	<path id="XMLID_208_" class="st0" d="M241,154.9l1.8-1.3l1.1,1.1c0.6,0.6,1.4,0.9,1.7,0.7c0.8-0.5,0.2-1.3-1-1.3
		c-0.5,0-1.2-0.3-1.5-0.7c-0.5-0.6-0.2-1.3,1.6-3.4c1.2-1.5,2.9-3.2,3.8-3.9l1.6-1.2l3.4,3.5c3.6,3.7,4.1,5.3,1.8,5.8
		c-0.7,0.2-1.3,0.6-1.5,0.9c-0.3,1,1.2,0.7,2.2-0.4c0.9-1,0.9-1,2.8,0.3c2.4,1.6,5,2,6.7,1.1c1.4-0.7,1.8-1.8,1.1-2.9
		c-0.4-0.6-0.8-0.5-2.3,0.4c-2.2,1.4-4,1.1-4.8-0.7c-0.5-1.2-0.5-1.4,0.7-1.9c1.4-0.6,1.7-1.4,0.5-1.4c-0.4,0-1.2,0.7-1.7,1.5
		l-0.9,1.5l-3.8-4.1l-3.8-4.1l1.2-1c0.7-0.5,3.1-1.9,5.3-3c2.2-1.1,3.7-2,3.3-2c-1.1,0-5.8,2.3-8.3,4l-2.2,1.5l-1.7-1.3
		c-2-1.5-4.8-3-6.6-3.5c-0.7-0.2,0.2,0.5,2.1,1.6c1.9,1.1,3.9,2.3,4.6,2.8l1.2,0.9l-3.8,4.1l-3.8,4.1l-0.9-1.5
		c-0.5-0.8-1.3-1.5-1.7-1.5c-1.1,0-0.9,0.9,0.3,1.3c1.2,0.4,1.3,1.6,0.2,2.9c-1.1,1.2-2,1.2-4.1-0.2c-1.5-0.9-1.9-1-2.2-0.4
		c-0.7,1.1-0.3,2.2,1.1,2.9C236.1,156.9,238.8,156.4,241,154.9z"/>
	<path id="XMLID_209_" d="M247.1,136.7c-1-0.6-1.2-2.3-0.4-2.8c0.6-0.4,0.6-11.5,0.1-13.6c-0.4-1.4-2-1.9-3.6-1
		c-1,0.5-1.1,0.4-1.1-1.3c0-1.6-0.1-1.8-1-1.5c-0.8,0.3-1,0.1-1-0.8c0-0.6,0.2-1.5,0.5-2.1c0.4-0.7,0.3-1.3-0.1-2.1
		c-0.6-1-0.5-1.2,1.1-2.5c1-0.9,1.5-1.6,1.2-1.8c-1.1-0.7-0.5-1.4,2.1-2.6c3.6-1.7,5.8-1.6,8.7,0.3c2.5,1.6,2.8,2,1.8,2.9
		c-0.4,0.4-0.3,0.7,0.5,0.9c1.4,0.5,2.5,2.3,1.3,2.3c-0.7,0-0.7,0.1,0,1.1c1.1,1.5,1.1,4.2,0,3.8c-2.4-1-2.6-1-1.9-0.3
		c0.4,0.4,0.6,1.2,0.6,1.9c0,1-0.2,1.1-1.9,1l-1.9-0.1v7.7c0,4.2,0.2,8,0.4,8.4c0.2,0.4,0.2,1,0,1.4
		C251.9,136.9,248.2,137.3,247.1,136.7z"/>
	<path id="XMLID_210_" class="st0" d="M251,134.7c-0.2-0.5-0.5-4.2-0.6-8.3c-0.2-8.2,0.2-9.3,2.6-9.3c1.7,0,1.7-0.2,0.3-1.7
		l-1.1-1.2l1.3-0.3c0.7-0.2,1.7-0.2,2.1,0c1.3,0.5,0.9-0.5-0.8-1.9l-1.6-1.3l1.2-0.5c1.2-0.5,1.2-0.5-0.3-0.5c-1,0-1.4-0.3-1.2-0.7
		c0.1-0.4,0.4-1,0.6-1.5c0.3-0.7-0.1-1.1-1.9-1.9c-2.2-1-2.4-1-4.7-0.2c-2.7,0.9-3.2,1.5-2.4,2.5c0.5,0.6,0.2,0.9-1.3,1.5
		c-2.1,0.9-1.9,1.6,0.6,1.9l1.5,0.2l-1.9,1.1c-2.6,1.5-2.5,2.2,0.3,1.6c3.2-0.6,3.3-0.6,1.5,0.9c-2,1.5-2.1,2.3-0.5,2.3
		c0.6,0,1.7,0.4,2.3,0.8c1.2,0.8,1.2,1,1,9.2l-0.2,8.4l1.7,0C251.2,135.6,251.4,135.5,251,134.7L251,134.7z"/>
	<polygon id="XMLID_211_" class="st3" points="203.8,220.2 197.9,238 209.8,238 	"/>
	<path id="XMLID_214_" d="M211.3,239.1l-14.9,0l7.4-22.3L211.3,239.1z M199.4,236.9l8.8,0l-4.5-13.3L199.4,236.9z"/>
	<path id="XMLID_215_" class="st3" d="M197.2,242.2c3.1-0.1,7.4-0.1,13-0.2v3.4c-6.7,0-8.7,0.1-13,0.1V242.2z"/>
	<path id="XMLID_218_" d="M196.1,246.7v-5.5l1.1,0c3.1-0.1,7.5-0.1,13-0.2l1.1,0v5.6l-1.1,0c-4.4,0-6.8,0.1-9.2,0.1
		c-1.2,0-2.4,0-3.8,0L196.1,246.7z M198.3,243.3v1.2c1,0,1.8,0,2.7,0c2.2,0,4.3,0,8.1-0.1v-1.2C204.7,243.2,201.1,243.3,198.3,243.3
		z"/>
	<polygon id="XMLID_219_" class="st3" points="294.9,220.3 289,238.1 300.9,238.1 	"/>
	<path id="XMLID_222_" d="M302.4,239.2l-14.9,0l7.4-22.3L302.4,239.2z M290.5,237l8.8,0l-4.5-13.3L290.5,237z"/>
	<path id="XMLID_223_" class="st3" d="M288.5,242.3c3.1-0.1,7.4-0.1,13-0.2v3.4c-6.7,0-8.7,0.1-13,0.1V242.3z"/>
	<path id="XMLID_226_" d="M287.4,246.8v-5.5l1.1,0c3.2-0.1,7.5-0.1,13-0.2l1.1,0v5.6l-1.1,0c-4.4,0-6.8,0.1-9.2,0.1
		c-1.2,0-2.4,0-3.8,0L287.4,246.8z M289.6,243.4v1.2c1,0,1.8,0,2.7,0c2.2,0,4.3,0,8.1-0.1v-1.2C296,243.3,292.4,243.4,289.6,243.4z"
		/>
</g>
</svg>
